# xmcd
#
# Track frame offsets:
#   150
#   17885
#   34599
#   52299
#   68973
#
# Disc length: 1575 seconds
#
# Revision: 0
# Processed by: cddbd v1.5.1PL2 Copyright (c) Steve Scherf et al.
# Submitted via: GXTranscoder 2.0.1939
#
DISCID=43062505
DTITLE=Curly - you are the one
DYEAR=1900
DGENRE=Pop
TTITLE0=Beautiful Lies
TTITLE1=You are the one
TTITLE2=Beautiful Lies (Alternativ Mix)
TTITLE3=You are the one (Alternativ Mix)
TTITLE4=Late Night Acoustic Session
EXTD=
EXTT0=
EXTT1=
EXTT2=
EXTT3=
EXTT4=
PLAYORDER=
